# xmcd CD database file
#
# Track frame offsets:
#	150
#	25856
#	48291
#	65409
#	79985
#	97199
#	119096
#	129940
#	144727
#	164905
#	184842
#	199383
#
# Disc length: 2965 seconds
#
# Revision: 11
# Processed by: cddbd v1.5.2PL0 Copyright (c) Steve Scherf et al.
# Submitted via: CDex 1.81
#
DISCID=b90b930c
DTITLE=Depeche Mode - Spirit [CD 1)
DYEAR=2017
DGENRE=Synthpop
TTITLE0=Going Backwards
TTITLE1=Where's The Revolution
TTITLE2=The Worst Crime
TTITLE3=Scum
TTITLE4=You Move
TTITLE5=Cover Me
TTITLE6=Eternal
TTITLE7=Poison Heart
TTITLE8=So Much Love
TTITLE9=Poorman
TTITLE10=No More (This Is The Last Time)
TTITLE11=Fail
EXTD=YEAR: 2017
EXTT0=
EXTT1=
EXTT2=
EXTT3=
EXTT4=
EXTT5=
EXTT6=
EXTT7=
EXTT8=
EXTT9=
EXTT10=
EXTT11=
PLAYORDER=
